<svg xmlns="http://www.w3.org/2000/svg" viewBox="0 0 132 128" width="132" height="128">
  <defs>
    <linearGradient id="vtrail" x1="0" y1="1" x2="1" y2="0">
      <stop offset="0" stop-color="#FF4D93"></stop>
      <stop offset="0.55" stop-color="#FF8FBC"></stop>
      <stop offset="1" stop-color="#FFE0EC"></stop>
    </linearGradient>
    <radialGradient id="vball" cx="0.38" cy="0.34" r="0.8">
      <stop offset="0" stop-color="#A6C2FA"></stop>
      <stop offset="0.55" stop-color="#5B8DEF"></stop>
      <stop offset="1" stop-color="#3F6BC8"></stop>
    </radialGradient>
    <clipPath id="ballclip"><circle cx="82" cy="58" r="38"></circle></clipPath>
  </defs>
  <g fill="url(#vtrail)">
    <circle cx="40" cy="96" r="5.5"></circle>
    <circle cx="27" cy="107" r="3.6"></circle>
    <circle cx="18" cy="115" r="2.2"></circle>
  </g>
  <circle cx="82" cy="58" r="38" fill="url(#vball)"></circle>
  <g clip-path="url(#ballclip)" fill="none" stroke="#28457F" stroke-width="5" stroke-linecap="round">
    <path d="M68 17 C 63 40 63 76 70 99"></path>
    <path d="M88 17 C 83 40 83 76 90 99"></path>
    <path d="M34 49 C 62 43 94 50 126 55"></path>
    <path d="M34 64 C 62 58 94 65 126 70"></path>
  </g>
  <ellipse cx="64" cy="40" rx="15" ry="8" fill="#BFD3FB" opacity="0.45" transform="rotate(-30 64 40)"></ellipse>
</svg>